<svg width="48" height="49" viewBox="0 0 48 49" xmlns="http://www.w3.org/2000/svg">
<path d="M9 44.5C8.2 44.5 7.5 44.2 6.9 43.6C6.3 43 6 42.3 6 41.5V10.5C6 9.7 6.3 9 6.9 8.4C7.5 7.8 8.2 7.5 9 7.5H12.25V4.5H15.5V7.5H32.5V4.5H35.75V7.5H39C39.8 7.5 40.5 7.8 41.1 8.4C41.7 9 42 9.7 42 10.5V41.5C42 42.3 41.7 43 41.1 43.6C40.5 44.2 39.8 44.5 39 44.5H9ZM9 41.5H39V20H9V41.5ZM9 17H39V10.5H9V17ZM24 28.5C23.4333 28.5 22.9583 28.3083 22.575 27.925C22.1917 27.5417 22 27.0667 22 26.5C22 25.9333 22.1917 25.4583 22.575 25.075C22.9583 24.6917 23.4333 24.5 24 24.5C24.5667 24.5 25.0417 24.6917 25.425 25.075C25.8083 25.4583 26 25.9333 26 26.5C26 27.0667 25.8083 27.5417 25.425 27.925C25.0417 28.3083 24.5667 28.5 24 28.5ZM16 28.5C15.4333 28.5 14.9583 28.3083 14.575 27.925C14.1917 27.5417 14 27.0667 14 26.5C14 25.9333 14.1917 25.4583 14.575 25.075C14.9583 24.6917 15.4333 24.5 16 24.5C16.5667 24.5 17.0417 24.6917 17.425 25.075C17.8083 25.4583 18 25.9333 18 26.5C18 27.0667 17.8083 27.5417 17.425 27.925C17.0417 28.3083 16.5667 28.5 16 28.5ZM32 28.5C31.4333 28.5 30.9583 28.3083 30.575 27.925C30.1917 27.5417 30 27.0667 30 26.5C30 25.9333 30.1917 25.4583 30.575 25.075C30.9583 24.6917 31.4333 24.5 32 24.5C32.5667 24.5 33.0417 24.6917 33.425 25.075C33.8083 25.4583 34 25.9333 34 26.5C34 27.0667 33.8083 27.5417 33.425 27.925C33.0417 28.3083 32.5667 28.5 32 28.5ZM24 36.5C23.4333 36.5 22.9583 36.3083 22.575 35.925C22.1917 35.5417 22 35.0667 22 34.5C22 33.9333 22.1917 33.4583 22.575 33.075C22.9583 32.6917 23.4333 32.5 24 32.5C24.5667 32.5 25.0417 32.6917 25.425 33.075C25.8083 33.4583 26 33.9333 26 34.5C26 35.0667 25.8083 35.5417 25.425 35.925C25.0417 36.3083 24.5667 36.5 24 36.5ZM16 36.5C15.4333 36.5 14.9583 36.3083 14.575 35.925C14.1917 35.5417 14 35.0667 14 34.5C14 33.9333 14.1917 33.4583 14.575 33.075C14.9583 32.6917 15.4333 32.5 16 32.5C16.5667 32.5 17.0417 32.6917 17.425 33.075C17.8083 33.4583 18 33.9333 18 34.5C18 35.0667 17.8083 35.5417 17.425 35.925C17.0417 36.3083 16.5667 36.5 16 36.5ZM32 36.5C31.4333 36.5 30.9583 36.3083 30.575 35.925C30.1917 35.5417 30 35.0667 30 34.5C30 33.9333 30.1917 33.4583 30.575 33.075C30.9583 32.6917 31.4333 32.5 32 32.5C32.5667 32.5 33.0417 32.6917 33.425 33.075C33.8083 33.4583 34 33.9333 34 34.5C34 35.0667 33.8083 35.5417 33.425 35.925C33.0417 36.3083 32.5667 36.5 32 36.5Z" />
</svg>
