<svg width="66" height="21" viewBox="0 0 66 21" fill="currentColor" xmlns="http://www.w3.org/2000/svg">
<g clip-path="url(#clip0_4571_1131)">
<path d="M14.5 21C11.2703 21 8.63513 18.4148 8.63513 15.2462C8.63513 12.0777 11.2703 9.49243 14.5 9.49243C17.7297 9.49243 20.3649 12.0777 20.3649 15.2462C20.3649 18.4148 17.7297 21 14.5 21ZM14.5 10.8182C12.0135 10.8182 9.98648 12.8068 9.98648 15.2462C9.98648 17.6856 12.0135 19.6742 14.5 19.6742C16.9865 19.6742 19.0135 17.6856 19.0135 15.2462C19.0135 12.8068 16.9865 10.8182 14.5 10.8182Z" />
<path d="M50.4595 21C47.2297 21 44.5946 18.4148 44.5946 15.2462C44.5946 12.8466 46.1487 10.6724 48.446 9.83713C49.0946 9.61175 49.7703 9.49243 50.446 9.49243C52.8108 9.49243 54.946 10.8845 55.8514 13.0322C56.1487 13.7349 56.3108 14.4773 56.3108 15.2462C56.3108 18.4148 53.6757 21 50.446 21H50.4595ZM50.4595 10.8182C49.9324 10.8182 49.4054 10.911 48.9189 11.0833C47.1487 11.7197 45.946 13.3902 45.946 15.2462C45.946 17.6856 47.973 19.6742 50.4595 19.6742C52.946 19.6742 54.973 17.6856 54.973 15.2462C54.973 14.6496 54.8514 14.0796 54.6216 13.5493C53.9189 11.8921 52.2838 10.8314 50.4595 10.8314V10.8182Z" />
<path d="M65.3108 18.2822C65.2162 18.2822 65.1216 18.2689 65.0406 18.2291L54.9595 13.8939C54.6216 13.7481 54.4595 13.3504 54.6081 13.0189C54.7568 12.6875 55.1622 12.5284 55.5 12.6742L65.5811 17.0094C65.9189 17.1553 66.0811 17.553 65.9324 17.8844C65.8243 18.1363 65.5676 18.2822 65.3108 18.2822Z" />
<path d="M9.31081 17.4072C9.22973 17.4072 9.14865 17.3939 9.06757 17.3674L0.432432 14.1723C0.175676 14.0795 0 13.8277 0 13.5492V3.03598C0 2.66477 0.297297 2.37311 0.675676 2.37311H9.32432C9.7027 2.37311 10 2.66477 10 3.03598V8.08712L15.4054 3.77841C18.473 1.33901 22.3243 0 26.2703 0C26.6486 0 26.9459 0.291667 26.9459 0.662879V3.38068C26.9459 3.75189 26.6486 4.04356 26.2703 4.04356C24.7432 4.04356 23.4865 5.26326 23.4865 6.77462V8.48485H33.1757C33.1757 8.48485 33.2162 8.48485 33.2297 8.48485L48.7432 9.81061C49.1216 9.83712 49.3919 10.1686 49.3514 10.5265C49.3243 10.8977 48.9865 11.1629 48.6216 11.1231L33.1351 9.79735H22.7973C22.4189 9.79735 22.1216 9.50568 22.1216 9.13447V6.76136C22.1216 4.74621 23.6216 3.07576 25.5811 2.75758V1.32576C22.1892 1.47159 18.8919 2.69129 16.2432 4.79924L9.74324 9.98295C9.54054 10.142 9.25676 10.1818 9.02703 10.0625C8.7973 9.94318 8.63514 9.7178 8.63514 9.46591V3.69886H1.35135V13.0852L9.55405 16.1212C9.90541 16.2538 10.0811 16.6383 9.94595 16.9697C9.83784 17.2348 9.58108 17.3939 9.31081 17.3939V17.4072Z" />
<path d="M65.3243 21H50.4595C50.0811 21 49.7838 20.7083 49.7838 20.3371C49.7838 19.9659 50.0811 19.6742 50.4595 19.6742H64.6486V17.6193C64.6486 17.2481 64.9459 16.9564 65.3243 16.9564C65.7027 16.9564 66 17.2481 66 17.6193V20.3371C66 20.7083 65.7027 21 65.3243 21Z" />
<path d="M50.4595 21H14.5C14.1216 21 13.8243 20.7083 13.8243 20.3371C13.8243 19.9659 14.1216 19.6743 14.5 19.6743H50.4459C50.8243 19.6743 51.1216 19.9659 51.1216 20.3371C51.1216 20.7083 50.8243 21 50.4459 21H50.4595Z" />
<path d="M31.0946 9.81061H24.8784C24.5 9.81061 24.2027 9.51894 24.2027 9.14773C24.2027 7.09281 25.9054 5.43561 27.9865 5.43561C30.0676 5.43561 31.7703 7.10606 31.7703 9.14773C31.7703 9.51894 31.473 9.81061 31.0946 9.81061ZM25.6486 8.48485H30.3243C30.027 7.49053 29.0946 6.76137 27.9865 6.76137C26.8784 6.76137 25.9459 7.49053 25.6486 8.48485Z" />
<path d="M38.027 21C37.7568 21 37.5 20.8409 37.3919 20.5758L34.4324 13.0189H18.7568C18.3784 13.0189 18.0811 12.7273 18.0811 12.3561C18.0811 11.9848 18.3784 11.6932 18.7568 11.6932H34.8919C35.1757 11.6932 35.4189 11.8655 35.527 12.1174L38.6622 20.0985C38.7973 20.4432 38.6216 20.8276 38.2703 20.9602C38.1892 20.9867 38.1081 21 38.027 21Z" />
<path d="M50.4595 17.9375C48.9459 17.9375 47.7162 16.7311 47.7162 15.2462C47.7162 13.7614 48.9459 12.5549 50.4595 12.5549C51.973 12.5549 53.2027 13.7614 53.2027 15.2462C53.2027 16.7311 51.973 17.9375 50.4595 17.9375ZM50.4595 13.8674C49.6892 13.8674 49.0676 14.4773 49.0676 15.233C49.0676 15.9886 49.6892 16.5985 50.4595 16.5985C51.2297 16.5985 51.8513 15.9886 51.8513 15.233C51.8513 14.4773 51.2297 13.8674 50.4595 13.8674Z" />
<path d="M14.5 17.089C13.4595 17.089 12.6081 16.2538 12.6081 15.233C12.6081 14.2121 13.4595 13.3769 14.5 13.3769C15.5405 13.3769 16.3919 14.2121 16.3919 15.233C16.3919 16.2538 15.5405 17.089 14.5 17.089ZM14.5 14.7159C14.2027 14.7159 13.9595 14.9545 13.9595 15.2462C13.9595 15.5379 14.2027 15.7765 14.5 15.7765C14.7973 15.7765 15.0405 15.5379 15.0405 15.2462C15.0405 14.9545 14.7973 14.7159 14.5 14.7159Z" />
</g>
<defs>
<clipPath id="clip0_4571_1131">
<rect width="66" height="21" fill="white"/>
</clipPath>
</defs>
</svg>
