<svg width="48" height="49" viewBox="0 0 48 49" fill="currentColor" xmlns="http://www.w3.org/2000/svg">
<path d="M4 44.5L13.3 18.5L30.15 35.15L4 44.5ZM9.05 39.45L24.75 33.85L14.6 23.65L9.05 39.45ZM27.85 26.25L26.15 24.55L38.15 12.55C39.2167 11.4833 40.5667 10.9417 42.2 10.925C43.8333 10.9083 45.1833 11.4333 46.25 12.5L47.1 13.35L45.4 15.05L44.45 14.1C43.8167 13.4667 43.0833 13.1417 42.25 13.125C41.4167 13.1083 40.6667 13.4333 40 14.1L27.85 26.25ZM19.9 18.5L18.2 16.8L19.7 15.3C20.4667 14.5333 20.825 13.6583 20.775 12.675C20.725 11.6917 20.3667 10.8667 19.7 10.2L18.3 8.80001L20 7.10001L21.3 8.40001C22.4667 9.56668 23.0417 11.025 23.025 12.775C23.0083 14.525 22.4167 15.9833 21.25 17.15L19.9 18.5ZM23.95 22.35L22.25 20.65L29.85 13.05C30.4833 12.4167 30.7917 11.6083 30.775 10.625C30.7583 9.64168 30.4333 8.83335 29.8 8.20001L26.75 5.15001L28.45 3.45001L31.6 6.60001C32.6333 7.66668 33.1667 9.00835 33.2 10.625C33.2333 12.2417 32.7167 13.5833 31.65 14.65L23.95 22.35ZM31.85 30.3L30.15 28.6L32.5 26.25C33.6667 25.0833 35.0667 24.4833 36.7 24.45C38.3333 24.4167 39.7333 24.9833 40.9 26.15L43.45 28.7L41.75 30.4L39.15 27.8C38.3833 27.0333 37.5833 26.65 36.75 26.65C35.9167 26.65 35.1167 27.0333 34.35 27.8L31.85 30.3Z" />
</svg>
