<svg width="48" height="49" viewBox="0 0 48 49" fill="currentColor" xmlns="http://www.w3.org/2000/svg">
<path d="M22 26C22.4333 26 22.7917 25.85 23.075 25.55C23.3583 25.25 23.5 24.9 23.5 24.5C23.5 24.0667 23.3583 23.7083 23.075 23.425C22.7917 23.1417 22.4333 23 22 23C21.6 23 21.25 23.1417 20.95 23.425C20.65 23.7083 20.5 24.0667 20.5 24.5C20.5 24.9 20.65 25.25 20.95 25.55C21.25 25.85 21.6 26 22 26ZM13 42.5V39.5L27 37.05V13.75C27 13.2833 26.875 12.875 26.625 12.525C26.375 12.175 26.0333 11.9667 25.6 11.9L13 9.95V7L26.3 9.3C27.3667 9.46667 28.25 9.975 28.95 10.825C29.65 11.675 30 12.6333 30 13.7V39.5L13 42.5ZM6 42.5V39.5H10V10C10 9.13333 10.2917 8.41667 10.875 7.85C11.4583 7.28333 12.1667 7 13 7H35C35.8667 7 36.5833 7.28333 37.15 7.85C37.7167 8.41667 38 9.13333 38 10V39.5H42V42.5H6ZM13 39.5H35V10H13V9.95V39.5Z" />
</svg>
