<svg width="48" height="49" viewBox="0 0 48 49" fill="currentColor" xmlns="http://www.w3.org/2000/svg">
<path d="M0 36.5V33.85C0 32.5643 0.691667 31.518 2.075 30.711C3.45833 29.9037 5.273 29.5 7.519 29.5C7.92433 29.5 8.31417 29.5083 8.6885 29.525C9.06283 29.5417 9.43333 29.5775 9.8 29.6325C9.53333 30.2108 9.33333 30.797 9.2 31.391C9.06667 31.9847 9 32.6043 9 33.25V36.5H0ZM12 36.5V33.25C12 32.1833 12.2917 31.2083 12.875 30.325C13.4583 29.4417 14.2833 28.6667 15.35 28C16.4167 27.3333 17.6917 26.8333 19.175 26.5C20.6583 26.1667 22.2667 26 24 26C25.7667 26 27.3917 26.1667 28.875 26.5C30.3583 26.8333 31.6333 27.3333 32.7 28C33.7667 28.6667 34.5833 29.4417 35.15 30.325C35.7167 31.2083 36 32.1833 36 33.25V36.5H12ZM39 36.5V33.25C39 32.588 38.9417 31.9642 38.825 31.3785C38.7083 30.7928 38.5167 30.2122 38.25 29.6365C38.6167 29.5788 38.9862 29.5417 39.3585 29.525C39.7308 29.5083 40.1113 29.5 40.5 29.5C42.75 29.5 44.5625 29.8962 45.9375 30.6885C47.3125 31.4808 48 32.5347 48 33.85V36.5H39ZM15 33.5H33V33.2C33 31.9667 32.1583 30.9583 30.475 30.175C28.7917 29.3917 26.6333 29 24 29C21.3667 29 19.2083 29.3917 17.525 30.175C15.8417 30.9583 15 31.9833 15 33.25V33.5ZM7.4785 28C6.52617 28 5.70833 27.6573 5.025 26.972C4.34167 26.2863 4 25.4623 4 24.5C4 23.5333 4.34267 22.7083 5.028 22.025C5.71367 21.3417 6.53767 21 7.5 21C8.46667 21 9.29167 21.3417 9.975 22.025C10.6583 22.7083 11 23.5405 11 24.5215C11 25.4738 10.6583 26.2917 9.975 26.975C9.29167 27.6583 8.4595 28 7.4785 28ZM40.4785 28C39.5262 28 38.7083 27.6573 38.025 26.972C37.3417 26.2863 37 25.4623 37 24.5C37 23.5333 37.3427 22.7083 38.028 22.025C38.7137 21.3417 39.5377 21 40.5 21C41.4667 21 42.2917 21.3417 42.975 22.025C43.6583 22.7083 44 23.5405 44 24.5215C44 25.4738 43.6583 26.2917 42.975 26.975C42.2917 27.6583 41.4595 28 40.4785 28ZM24 24.5C22.3333 24.5 20.9167 23.9167 19.75 22.75C18.5833 21.5833 18 20.1667 18 18.5C18 16.8 18.5833 15.375 19.75 14.225C20.9167 13.075 22.3333 12.5 24 12.5C25.7 12.5 27.125 13.075 28.275 14.225C29.425 15.375 30 16.8 30 18.5C30 20.1667 29.425 21.5833 28.275 22.75C27.125 23.9167 25.7 24.5 24 24.5ZM24.0175 21.5C24.8725 21.5 25.5833 21.2108 26.15 20.6325C26.7167 20.0542 27 19.3375 27 18.4825C27 17.6275 26.7142 16.9167 26.1425 16.35C25.5708 15.7833 24.8625 15.5 24.0175 15.5C23.1725 15.5 22.4583 15.7858 21.875 16.3575C21.2917 16.9292 21 17.6375 21 18.4825C21 19.3275 21.2892 20.0417 21.8675 20.625C22.4458 21.2083 23.1625 21.5 24.0175 21.5Z" />
</svg>
