<svg width="48" height="49" viewBox="0 0 48 49" fill="currentColor" xmlns="http://www.w3.org/2000/svg">
<path d="M24 34.7C27.6333 31.9333 30.375 29.1083 32.225 26.225C34.075 23.3417 35 20.7667 35 18.5C35 15.2667 33.975 12.625 31.925 10.575C29.875 8.525 27.2333 7.5 24 7.5C20.7667 7.5 18.125 8.525 16.075 10.575C14.025 12.625 13 15.2667 13 18.5C13 20.7333 13.925 23.2917 15.775 26.175C17.625 29.0583 20.3667 31.9 24 34.7ZM24 38.5C19.2667 35.0667 15.75 31.6333 13.45 28.2C11.15 24.7667 10 21.5333 10 18.5C10 14.4 11.3083 11.0417 13.925 8.425C16.5417 5.80833 19.9 4.5 24 4.5C28.1 4.5 31.4583 5.80833 34.075 8.425C36.6917 11.0417 38 14.4 38 18.5C38 21.5333 36.85 24.7667 34.55 28.2C32.25 31.6333 28.7333 35.0667 24 38.5ZM23.95 22.5C25.0833 22.5 26.0417 22.1083 26.825 21.325C27.6083 20.5417 28 19.6 28 18.5C28 17.4 27.6083 16.4583 26.825 15.675C26.0417 14.8917 25.0833 14.5 23.95 14.5C22.85 14.5 21.9167 14.8917 21.15 15.675C20.3833 16.4583 20 17.4 20 18.5C20 19.6 20.3833 20.5417 21.15 21.325C21.9167 22.1083 22.85 22.5 23.95 22.5ZM10 44.5V41.5H38V44.5H10Z" />
</svg>
