<svg width="48" height="49" viewBox="0 0 48 49" fill="currentColor" xmlns="http://www.w3.org/2000/svg">
<path d="M27.15 31.5C27.7033 31.5 28.1833 31.2967 28.59 30.89C28.9967 30.4833 29.2 30.0033 29.2 29.45C29.2 28.8967 28.9967 28.4167 28.59 28.01C28.1833 27.6033 27.7033 27.4 27.15 27.4C26.5967 27.4 26.1167 27.6033 25.71 28.01C25.3033 28.4167 25.1 28.8967 25.1 29.45C25.1 30.0033 25.3033 30.4833 25.71 30.89C26.1167 31.2967 26.5967 31.5 27.15 31.5ZM25.9 25.2H28.25C28.3167 24.2333 28.4583 23.5167 28.675 23.05C28.8917 22.5833 29.4333 21.9333 30.3 21.1C31.2 20.2333 31.825 19.4767 32.175 18.83C32.525 18.1837 32.7 17.4237 32.7 16.55C32.7 15.0207 32.175 13.7717 31.125 12.803C30.075 11.8343 28.7 11.35 27 11.35C25.7333 11.35 24.6 11.6917 23.6 12.375C22.6 13.0583 21.8667 14.0167 21.4 15.25L23.65 16.2C24.0167 15.3667 24.475 14.7333 25.025 14.3C25.575 13.8667 26.2333 13.65 27 13.65C27.9927 13.65 28.7992 13.9333 29.4195 14.5C30.0398 15.0667 30.35 15.7833 30.35 16.65C30.35 17.3167 30.2 17.9 29.9 18.4C29.6 18.9 29.0667 19.4333 28.3 20C27.2333 20.9667 26.5667 21.7417 26.3 22.325C26.0333 22.9083 25.9 23.8667 25.9 25.2ZM13 38.5C12.2 38.5 11.5 38.2 10.9 37.6C10.3 37 10 36.3 10 35.5V7.5C10 6.7 10.3 6 10.9 5.4C11.5 4.8 12.2 4.5 13 4.5H41C41.8 4.5 42.5 4.8 43.1 5.4C43.7 6 44 6.7 44 7.5V35.5C44 36.3 43.7 37 43.1 37.6C42.5 38.2 41.8 38.5 41 38.5H13ZM13 35.5H41V7.5H13V35.5ZM7 44.5C6.2 44.5 5.5 44.2 4.9 43.6C4.3 43 4 42.3 4 41.5V10.5H7V41.5H38V44.5H7Z" />
</svg>
