<svg width="48" height="49" viewBox="0 0 48 49" fill="currentColor" xmlns="http://www.w3.org/2000/svg">
<path d="M29 36.5C27.6 36.5 26.4167 36.0167 25.45 35.05C24.4833 34.0833 24 32.9 24 31.5C24 30.1 24.4833 28.9167 25.45 27.95C26.4167 26.9833 27.6 26.5 29 26.5C30.4 26.5 31.5833 26.9833 32.55 27.95C33.5167 28.9167 34 30.1 34 31.5C34 32.9 33.5167 34.0833 32.55 35.05C31.5833 36.0167 30.4 36.5 29 36.5ZM10 44.5C8.9 44.5 7.95833 44.1083 7.175 43.325C6.39167 42.5417 6 41.6 6 40.5V12.5C6 11.4 6.39167 10.4583 7.175 9.675C7.95833 8.89167 8.9 8.5 10 8.5H12V4.5H16V8.5H32V4.5H36V8.5H38C39.1 8.5 40.0417 8.89167 40.825 9.675C41.6083 10.4583 42 11.4 42 12.5V40.5C42 41.6 41.6083 42.5417 40.825 43.325C40.0417 44.1083 39.1 44.5 38 44.5H10ZM10 40.5H38V20.5H10V40.5ZM10 16.5H38V12.5H10V16.5Z" />
</svg>
