<svg width="56" height="57" viewBox="0 0 56 57" fill="currentColor" xmlns="http://www.w3.org/2000/svg">
<g clip-path="url(#clip0_4571_1107)">
<path d="M55.7402 14.0863C55.5902 14.4111 55.543 15.3403 55.4219 15.828C53.9985 21.5182 48.3115 23.231 44.3426 26.7208C41.4209 29.2899 40.0876 33.2127 40.8743 37.0497C41.02 37.7593 41.3105 38.427 41.4884 39.1151C43.3512 46.3059 38.9289 53.4044 31.7618 55.0293C26.4103 55.7817 21.1016 57.0046 15.7469 57.7174C8.46501 58.6874 2.00845 54.0132 0.994518 46.7035C0.966651 46.5063 1.0256 46.2426 0.987015 46.0776C0.798377 45.2759 0.880906 44.3734 0.994518 43.5556C1.51006 39.8493 3.02237 37.5556 5.70296 35.0808C10.2839 30.8526 15.1123 26.8815 19.69 22.6479C20.2613 21.9844 21.4199 22.4453 21.1091 23.3692C21.0652 23.4989 20.794 23.7476 20.6847 23.8558C15.9848 28.1784 11.0234 32.2352 6.34712 36.5814C-2.06763 44.4023 4.18207 57.5395 15.3728 56.2179C16.4328 55.9371 17.5732 55.9264 18.6354 55.6756C18.6911 55.6627 18.7811 55.6284 18.809 55.5813C18.9312 55.3808 18.0684 52.1665 17.9805 51.6917C17.9215 51.6488 17.4778 51.7142 17.3664 51.7292C15.0427 52.0304 13.5432 52.6799 11.1627 51.8107C5.79514 49.8514 4.95377 42.6274 9.45428 39.262L42.9547 9.5247C47.9343 6.45398 52.8163 13.0552 48.3866 16.8859C43.8678 20.2974 38.8968 22.6436 36.4713 28.0787C36.2827 28.5021 35.8829 29.8901 35.6331 30.1227C35.0865 30.6328 34.1959 30.1537 34.3341 29.3595C34.4488 28.6972 35.1969 27.128 35.5335 26.4871C38.2612 21.2974 43.1272 18.9244 47.6116 15.5215C50.3523 12.6726 46.6738 8.56008 43.4841 11.0724L10.0974 40.7614C5.78656 44.6596 8.81227 51.3562 14.675 50.6445C16.4478 50.4291 18.3288 49.9918 20.107 49.6992C23.2184 49.1869 26.361 48.7528 29.4585 48.1719C31.5721 47.7753 33.2516 46.8986 34.198 44.8729C35.5024 42.0819 34.093 40.2502 33.6857 37.5417C33.4788 36.1655 33.3824 34.4774 33.5699 33.098C33.6578 32.4506 34.676 32.2802 35.0222 32.8836C35.1273 33.0669 35.0726 34.3306 35.0747 34.6575C35.0855 35.9372 35.1251 37.1194 35.407 38.3938C35.6417 39.4581 36.1262 40.4785 36.2505 41.5696C36.6642 45.1837 34.3813 48.4998 30.9033 49.458L25.7468 50.3305L26.5335 54.0196L26.6396 54.2994C26.7414 54.3005 26.8454 54.3047 26.9472 54.2908C29.1048 54.0111 32.0297 53.5673 33.9665 52.6284C38.7039 50.3326 41.2473 45.1001 40.0844 39.9318C39.855 38.9125 39.4391 37.9361 39.2655 36.8922C38.8057 34.128 39.3362 31.1988 40.6985 28.7593C42.8614 24.8858 47.5966 22.7829 50.96 20.0498C55.1475 16.6469 55.2536 10.3489 51.2033 6.78731C48.1733 4.12173 43.5591 3.97382 40.3598 6.39503L23.63 21.2299C23.4156 21.366 23.2056 21.4453 22.9462 21.3778C22.8422 21.351 22.4639 21.023 22.4349 20.9244C22.4028 20.8151 22.4049 20.3692 22.4521 20.2663C22.4853 20.1935 23.0126 19.6951 23.1198 19.5943C28.3727 14.6833 33.9944 10.141 39.2794 5.26106C45.5624 0.507597 54.4841 4.13244 55.6438 11.9384C55.6974 12.2996 55.857 13.8334 55.7402 14.0885V14.0863ZM24.4028 51.7163L24.1959 50.6724C24.0148 50.5427 22.9205 50.8632 22.6396 50.8642L22.8583 51.9296C22.9365 51.9982 24.3577 51.7806 24.4038 51.7163H24.4028ZM21.2977 52.2555L21.0877 51.2083C20.9097 51.0808 19.7994 51.3455 19.5346 51.4044L19.7468 52.4687L21.2977 52.2555ZM24.7757 53.2822C24.6975 53.2308 23.3052 53.4559 23.2516 53.5438L23.4982 54.8278L25.0287 54.5652L24.7757 53.2822ZM21.5014 53.7667L20.197 54.0218C20.0716 54.1997 20.3599 55.1075 20.4392 55.3433L21.7972 55.1397C21.8454 55.1258 21.8958 55.0882 21.9183 55.0432C21.9773 54.9242 21.7447 53.9125 21.6482 53.8096C21.5957 53.7528 21.57 53.7603 21.5014 53.7667Z" />
<path d="M10.3527 52.9114C10.6904 52.8632 11.4653 53.2179 11.8554 53.3133C13.0998 53.6167 13.8715 53.5363 15.1094 53.4366C15.6175 53.3959 16.1416 53.5695 16.1555 54.1611C16.1694 54.7881 15.6196 54.9703 15.103 55.0368C13.8736 55.1933 11.1759 55.0057 10.1041 54.3691C9.48243 53.9993 9.63892 53.0143 10.3538 52.9114H10.3527Z" />
<path d="M45.8835 6.07356C46.0978 6.04462 46.6359 6.14109 46.8727 6.18396C48.2114 6.42404 49.7645 7.20324 50.7205 8.17752C51.146 8.6116 51.3336 9.32649 50.6659 9.6266C49.9981 9.9267 49.8802 9.45832 49.4869 9.14321C48.5308 8.37687 47.6691 7.91814 46.4547 7.67377C46.1932 7.62125 45.8524 7.67484 45.578 7.53229C44.9499 7.20432 45.1043 6.17753 45.8835 6.07356Z" />
<path d="M24.9283 21.8848C25.2745 21.8387 25.5371 21.9481 25.7139 22.2503C26.0665 22.8537 25.611 23.1753 25.2091 23.5601C24.0944 24.6276 22.8179 25.634 21.656 26.6522C20.8275 26.9395 20.2455 26.0745 20.7868 25.4079C22.0022 24.4036 23.133 23.2096 24.3506 22.2192C24.5371 22.067 24.6828 21.9181 24.9283 21.8859V21.8848Z" />
<path d="M4.18882 44.7131C4.71829 44.6188 5.09342 44.9018 5.16309 45.428C5.36888 46.9832 5.52536 47.7849 6.27348 49.1944C6.44604 49.5191 6.72257 49.7206 6.71507 50.1343C6.70649 50.6638 6.18988 50.9789 5.68935 50.8503C5.2692 50.7431 4.51679 49.2405 4.34316 48.8203C4.00554 48.0036 3.52216 46.2255 3.61326 45.3702C3.64434 45.0786 3.89514 44.7657 4.18882 44.7131Z" />
<path d="M38.005 28.3681C38.289 28.2952 38.6095 28.3381 38.8239 28.5407C39.3726 29.0605 38.7135 30.0519 38.5195 30.6511C38.2719 31.4142 38.0961 32.2577 37.9718 33.0508C37.8871 33.5878 38.0264 34.4356 37.3726 34.6489C36.9718 34.7797 36.4552 34.5246 36.3694 34.1034C36.2998 33.7625 36.4155 32.9962 36.4702 32.621C36.6074 31.6768 36.9032 30.5278 37.2333 29.6328C37.3555 29.3017 37.6492 28.4592 38.005 28.3681Z" />
<path d="M40.5215 7.94916C41.2857 7.77446 41.8441 8.6244 41.3157 9.22461L37.4583 12.6555C37.0939 12.8377 36.6169 12.7991 36.3897 12.4347C35.9963 11.8023 36.5194 11.4218 36.947 11.0188C37.8388 10.1775 38.8998 9.23212 39.8409 8.44648C39.9888 8.32323 40.3629 7.98668 40.5226 7.94916H40.5215Z" />
<path d="M17.1618 28.8505C17.8274 28.8108 18.1832 29.471 17.8692 30.0444L14.0589 33.4689C13.3462 34.0423 12.433 33.3531 12.8285 32.5064L16.8542 28.9223C16.9485 28.8998 17.0675 28.8558 17.1607 28.8494L17.1618 28.8505Z" />
<path d="M51.993 13.3081C52.3006 13.2642 52.8033 13.5 52.8623 13.8065C52.9662 14.351 52.619 15.4936 52.4014 16.022C52.053 16.8665 51.3574 17.8665 50.6951 18.4957C50.4432 18.7347 50.0863 19.0712 49.7294 19.0723C49.0091 19.0745 48.7487 18.1966 49.2449 17.6875C50.1442 16.7658 50.709 16.2663 51.1313 14.9652C51.3156 14.3992 51.2728 13.4089 51.9941 13.3071L51.993 13.3081Z" />
<path d="M35.3246 48.3594C36.063 48.2533 36.54 48.9789 36.0609 49.5781C35.2399 50.607 32.9827 51.8406 31.704 52.1343C31.1509 52.2619 30.4714 52.2361 30.4114 51.5266C30.3374 50.6424 31.5915 50.5716 32.2367 50.3101C32.8819 50.0486 33.6075 49.6317 34.1531 49.2254C34.4703 48.9886 34.9719 48.4109 35.3246 48.3605V48.3594Z" />
<path d="M38.6949 44.7893C38.3669 45.1537 37.7399 45.0765 37.4806 44.6746C37.2212 44.2727 37.5041 43.6221 37.5363 43.1751C37.592 42.4184 37.5534 41.412 37.4141 40.6682C37.2973 40.0476 36.6392 38.7336 37.7271 38.5964C38.4816 38.501 38.6638 39.2405 38.8064 39.8118C39.1043 40.9994 39.1858 42.4399 39.0347 43.6564C38.9982 43.9522 38.8868 44.5771 38.6949 44.7904V44.7893Z" />
<path d="M32.7534 14.9181C33.0932 14.873 33.3751 14.9599 33.5605 15.2621C33.9378 15.8773 33.3365 16.3136 32.9271 16.7005C31.8735 17.6983 30.702 18.5836 29.6548 19.5911C29.0171 20.082 28.1039 19.2739 28.4748 18.6265C28.538 18.5161 29.0407 18.0574 29.1736 17.932C30.0921 17.0692 31.1575 16.1163 32.1211 15.3061C32.3161 15.1421 32.4983 14.9513 32.7524 14.9181H32.7534Z" />
<path d="M9.38444 35.8258C9.92034 35.8215 10.2783 36.3885 10.0822 36.8869C9.43803 37.7272 8.46805 38.3252 7.73922 39.0991C7.53879 39.3113 7.3105 39.5964 7.12936 39.829C6.76173 40.2984 6.37374 41.3306 5.56881 40.844C5.13366 40.5803 5.11222 40.1569 5.32766 39.7421C5.96538 38.5203 7.71778 36.9158 8.8121 36.0455C9.00073 35.8954 9.13149 35.8279 9.38444 35.8258Z" />
<path d="M45.1852 20.8666C45.8315 20.7444 46.3288 21.2728 46.1284 21.917C46.0458 22.1839 45.4402 22.5697 45.1948 22.7519C44.5174 23.2535 43.7832 23.6951 43.1134 24.2074C42.8293 24.425 41.9976 25.2482 41.7672 25.3264C41.1155 25.5483 40.5614 25.0477 40.7211 24.3875C40.8036 24.0456 41.929 23.1753 42.257 22.9234C43.1991 22.1999 44.2141 21.5536 45.1852 20.8677V20.8666Z" />
</g>
<defs>
<clipPath id="clip0_4571_1107">
<rect width="56" height="56" fill="white" transform="translate(0 0.5)"/>
</clipPath>
</defs>
</svg>
